<svg width="1440" height="1024" viewBox="0 0 1440 1024" fill="none" xmlns="http://www.w3.org/2000/svg">
<g clip-path="url(#clip0_210_2)">
<rect width="1440" height="1024" fill="url(#paint0_linear_210_2)"/>
<line x1="189.337" y1="0.369706" x2="-0.663344" y2="173.37" stroke="#04BA78"/>
<line x1="2.25006" y1="172.567" x2="189.25" y2="280.567" stroke="#04BA78"/>
<line x1="189.343" y1="281.364" x2="0.3428" y2="459.364" stroke="#04BA78"/>
<line x1="2.21684" y1="456.549" x2="189.217" y2="546.549" stroke="#04BA78"/>
<line x1="188.328" y1="547.378" x2="-0.672314" y2="711.378" stroke="#04BA78"/>
<line x1="2.1805" y1="710.534" x2="188.18" y2="782.534" stroke="#04BA78"/>
<line x1="187.355" y1="783.353" x2="2.3545" y2="969.353" stroke="#04BA78"/>
<line x1="2.15811" y1="968.526" x2="167.158" y2="1023.53" stroke="#04BA78"/>
<line x1="1440.34" y1="-9.63029" x2="1250.34" y2="163.37" stroke="#04BA78"/>
<line x1="1253.25" y1="162.567" x2="1440.25" y2="270.567" stroke="#04BA78"/>
<line x1="1440.34" y1="271.364" x2="1251.34" y2="449.364" stroke="#04BA78"/>
<line x1="1253.22" y1="446.549" x2="1440.22" y2="536.549" stroke="#04BA78"/>
<line x1="1439.33" y1="537.378" x2="1250.33" y2="701.378" stroke="#04BA78"/>
<line x1="1253.18" y1="700.534" x2="1439.18" y2="772.534" stroke="#04BA78"/>
<line x1="1438.35" y1="773.353" x2="1253.35" y2="959.353" stroke="#04BA78"/>
<line x1="1253.16" y1="958.526" x2="1418.16" y2="1013.53" stroke="#04BA78"/>
<line x1="189.337" y1="0.369706" x2="-0.663344" y2="173.37" stroke="#04BA78"/>
<line x1="2.25006" y1="172.567" x2="189.25" y2="280.567" stroke="#04BA78"/>
<line x1="189.343" y1="281.364" x2="0.3428" y2="459.364" stroke="#04BA78"/>
<line x1="2.21684" y1="456.549" x2="189.217" y2="546.549" stroke="#04BA78"/>
<line x1="188.328" y1="547.378" x2="-0.672314" y2="711.378" stroke="#04BA78"/>
<line x1="2.1805" y1="710.534" x2="188.18" y2="782.534" stroke="#04BA78"/>
<line x1="187.355" y1="783.353" x2="2.3545" y2="969.353" stroke="#04BA78"/>
<line x1="2.15811" y1="968.526" x2="167.158" y2="1023.53" stroke="#04BA78"/>
<line x1="1440.34" y1="-9.63029" x2="1250.34" y2="163.37" stroke="#04BA78"/>
<line x1="1253.25" y1="162.567" x2="1440.25" y2="270.567" stroke="#04BA78"/>
<line x1="1440.34" y1="271.364" x2="1251.34" y2="449.364" stroke="#04BA78"/>
<line x1="1253.22" y1="446.549" x2="1440.22" y2="536.549" stroke="#04BA78"/>
<line x1="1439.33" y1="537.378" x2="1250.33" y2="701.378" stroke="#04BA78"/>
<line x1="1253.18" y1="700.534" x2="1439.18" y2="772.534" stroke="#04BA78"/>
<line x1="1438.35" y1="773.353" x2="1253.35" y2="959.353" stroke="#04BA78"/>
<line x1="1253.16" y1="958.526" x2="1418.16" y2="1013.53" stroke="#04BA78"/>
<line x1="189.337" y1="0.369706" x2="-0.663344" y2="173.37" stroke="#04BA78"/>
<line x1="2.25006" y1="172.567" x2="189.25" y2="280.567" stroke="#04BA78"/>
<line x1="189.343" y1="281.364" x2="0.3428" y2="459.364" stroke="#04BA78"/>
<line x1="2.21684" y1="456.549" x2="189.217" y2="546.549" stroke="#04BA78"/>
<line x1="188.328" y1="547.378" x2="-0.672314" y2="711.378" stroke="#04BA78"/>
<line x1="2.1805" y1="710.534" x2="188.18" y2="782.534" stroke="#04BA78"/>
<line x1="187.355" y1="783.353" x2="2.3545" y2="969.353" stroke="#04BA78"/>
<line x1="2.15811" y1="968.526" x2="167.158" y2="1023.53" stroke="#04BA78"/>
<line x1="1440.34" y1="-9.63029" x2="1250.34" y2="163.37" stroke="#04BA78"/>
<line x1="1253.25" y1="162.567" x2="1440.25" y2="270.567" stroke="#04BA78"/>
<line x1="1440.34" y1="271.364" x2="1251.34" y2="449.364" stroke="#04BA78"/>
<line x1="1253.22" y1="446.549" x2="1440.22" y2="536.549" stroke="#04BA78"/>
<line x1="1439.33" y1="537.378" x2="1250.33" y2="701.378" stroke="#04BA78"/>
<line x1="1253.18" y1="700.534" x2="1439.18" y2="772.534" stroke="#04BA78"/>
<line x1="1438.35" y1="773.353" x2="1253.35" y2="959.353" stroke="#04BA78"/>
<line x1="1253.16" y1="958.526" x2="1418.16" y2="1013.53" stroke="#04BA78"/>
</g>
<defs>
<linearGradient id="paint0_linear_210_2" x1="720" y1="0" x2="720" y2="1024" gradientUnits="userSpaceOnUse">
<stop stop-color="#B2D8CA"/>
<stop offset="0.575762"/>
</linearGradient>
<clipPath id="clip0_210_2">
<rect width="1440" height="1024" fill="white"/>
</clipPath>
</defs>
</svg>
